<?xml version="1.0" encoding="UTF-8"?>
<svg xmlns="http://www.w3.org/2000/svg"
     width="200" height="200" viewBox="0 0 200 200">
  <g transform="translate(310.30586, 22.07094) scale(8.217)">
    <rect style="fill:#00ffff;stroke:#00ffff;stroke-width:0.49022451"
          y="22.078033" x="100.33755" height="24.834175" width="24.338467"/>
    <path fill="#000000" stroke-width="0.04005642"
          d="m 105.94142,47.100502 c -0.73048,-0.14975 -1.33944,-0.48274 -1.82893,-1.0001 -0.4963,-0.52456 -0.79326,-1.12549 -0.92492,-1.87173 -0.0292,-0.16574 -0.0423,-3.19109 -0.0423,-9.77384 v -9.533807 l 0.10384,-0.42064 c 0.34438,-1.395068 1.3692,-2.365709 2.76905,-2.622657 0.32848,-0.06029 12.64641,-0.06029 12.97488,0 1.48297,0.272204 2.51959,1.320415 2.82975,2.86139 0.0602,0.298938 0.0609,19.148684 8e-4,19.489554 -0.2683,1.52065 -1.33966,2.6134 -2.83055,2.88706 -0.35373,0.0649 -12.731,0.0505 -13.05157,-0.0152 z m 4.47882,-2.82579 c 0.19466,-0.31604 0.45042,-0.72936 0.56835,-0.91849 0.26089,-0.4184 1.253,-2.01906 1.4178,-2.28747 0.0654,-0.10659 0.19038,-0.30839 0.27764,-0.44846 0.0873,-0.14007 0.2369,-0.38278 0.33254,-0.53936 0.0956,-0.15658 0.19479,-0.28469 0.22035,-0.28469 0.0256,0 0.10695,0.0455 0.18087,0.10114 0.0739,0.0556 0.14878,0.10113 0.16635,0.10113 0.0176,0 0.032,-0.18204 0.032,-0.40454 v -0.40454 h 0.55528 0.55527 v 2.8318 2.8318 h 0.39662 0.39663 v -2.8318 -2.8318 h 0.555 0.55501 l 0.0102,2.82169 0.0102,2.82168 0.38644,0.0116 0.38644,0.0116 0.0102,-2.82315 0.0102,-2.82315 0.56519,-0.0112 0.56519,-0.0112 v 2.8373 2.8373 l 0.10907,-0.0279 c 0.41773,-0.10679 0.72581,-0.37178 0.853,-0.73369 0.0639,-0.18193 0.0695,-0.44158 0.0694,-3.22183 l -2e-4,-3.02396 h -7.09958 -7.09957 l -2e-4,3.02396 c -2e-4,2.76742 0.006,3.04056 0.0686,3.21966 0.0982,0.27958 0.30268,0.50334 0.58375,0.63897 l 0.24028,0.11594 1.88396,-0.002 1.88396,-0.002 0.35394,-0.57463 z m 3.19516,-1.21178 -6.9e-4,-1.79011 -0.28686,0.45197 c -0.15777,0.24859 -0.33416,0.53076 -0.39198,0.62705 -0.10088,0.16801 -0.32155,0.52392 -1.1302,1.82282 -0.20405,0.32776 -0.37101,0.61448 -0.37101,0.63715 0,0.027 0.37649,0.0412 1.09072,0.0412 h 1.09072 z m -7.14815,-8.81904 0.0102,-2.4576 h 0.55466 0.55466 l 0.0102,2.4576 0.0102,2.4576 h 0.3768 0.37679 l 0.0102,-2.4576 0.0102,-2.4576 h 0.55496 0.55497 v 2.46918 2.46917 l 0.38671,-0.0116 0.38671,-0.0116 0.0102,-2.45759 0.0102,-2.4576 h 0.55466 0.55466 l 0.0102,2.4576 0.0102,2.45759 2.05253,0.0105 2.05253,0.0105 v -2.46807 -2.46808 h 0.55497 0.55497 l 0.0102,2.4576 0.0102,2.4576 0.3864,0.0116 0.3864,0.0116 0.0102,-2.45906 0.0102,-2.45906 h 0.55527 0.55528 l 0.0102,2.4588 0.0102,2.45881 0.50538,-0.0113 0.50539,-0.0113 0.0102,-3.00373 0.0102,-3.00373 h -7.09983 -7.09983 v 3.01502 3.01502 l 0.52553,-0.0113 0.52553,-0.0113 z m 0,-7.16042 0.0102,-2.457594 h 0.55466 0.55466 l 0.0102,2.457594 0.0102,2.45761 2.91519,0.0111 c 1.60336,0.006 2.95535,0.001 3.00443,-0.0109 l 0.0892,-0.022 v -2.44672 -2.446715 h 0.55527 0.55528 v 2.447485 c 0,1.34612 0.005,2.4486 0.01,2.44996 0.0899,0.0225 0.6194,0.038 0.68899,0.0201 l 0.0943,-0.0241 v -2.44672 -2.446715 h 0.55527 0.55528 v 2.422305 c 0,2.02944 0.009,2.42995 0.0556,2.46941 0.0353,0.0299 0.17674,0.0428 0.3867,0.0353 l 0.33106,-0.0118 0.0198,-2.44748 0.0198,-2.44749 h 0.55528 0.55527 l 0.0198,2.44749 0.0198,2.44748 h 0.49578 0.49578 l 0.0102,-2.24082 0.0102,-2.240827 -0.10173,-0.226889 c -0.1339,-0.298603 -0.26484,-0.434849 -0.55337,-0.575799 l -0.23798,-0.11625 h -6.20717 -6.20717 l -0.24028,0.11594 c -0.28107,0.135627 -0.48549,0.359385 -0.58374,0.638971 -0.0621,0.176663 -0.0687,0.410514 -0.0686,2.403834 1.1e-4,1.21447 0.0126,2.22078 0.0278,2.23625 0.0152,0.0155 0.25165,0.023 0.52552,0.0169 l 0.49796,-0.0113 z"/>
  </g>
</svg>